<svg width="38" height="39" viewBox="0 0 38 39" fill="none" xmlns="http://www.w3.org/2000/svg">
<g clip-path="url(#clip0_292_363)">
<mask id="mask0_292_363" style="mask-type:luminance" maskUnits="userSpaceOnUse" x="0" y="0" width="38" height="39">
<path d="M0.308105 0.807617H37.6927V38.1922H0.308105V0.807617Z" fill="white"/>
</mask>
<g mask="url(#mask0_292_363)">
<path d="M23.999 24.4984C24.912 23.6005 25.6383 22.5307 26.1357 21.3506C26.6332 20.1706 26.8921 18.9037 26.8975 17.6231C26.9028 16.3425 26.6545 15.0735 26.1669 13.8894C25.6793 12.7052 24.9621 11.6293 24.0566 10.7238C23.151 9.81827 22.0751 9.10102 20.891 8.61342C19.7068 8.12583 18.4378 7.87754 17.1572 7.8829C15.8766 7.88825 14.6098 8.14714 13.4297 8.64462C12.2497 9.1421 11.1799 9.86832 10.2819 10.7814C8.488 12.6056 7.48744 15.0647 7.49813 17.6231C7.50883 20.1816 8.52992 22.6322 10.339 24.4413C12.1482 26.2504 14.5988 27.2715 17.1572 27.2822C19.7157 27.2929 22.1748 26.2924 23.999 24.4984ZM23.999 24.4984L31.4572 31.9613" stroke="#F4F5F7" stroke-width="3.11071" stroke-linecap="round" stroke-linejoin="round"/>
</g>
</g>
<defs>
<clipPath id="clip0_292_363">
<rect width="37.3846" height="37.3846" fill="white" transform="translate(0.308105 0.807617)"/>
</clipPath>
</defs>
</svg>
